# xmcd CD database file
# Copyright (C) 1993-1998 Ti Kan
# 
# Track frame offsets:
#     150
#     2145
#     19065
#     29255
#     42927
#     52942
#     66957
#     78040
#     95547
#     104127
#     116337
#     122260
#     127435
#     139342
#     159125
#     171672
#     183890
#     197427
#     206007
#     215140
#     224332
#     235247
#     250507
#     262195
#     275402
# 
# Disc length: 3750 seconds
# 
# Revision: 1
# Processed by: cddbd v1.4b41PL1 Copyright (c) Steve Scherf et al.
# Submitted via: DiscPlay 4.0.4
# 
DISCID=6c0ea419
DTITLE=Maria Beth nia - Ao Vivo
DYEAR=1900
DGENRE=
TTITLE0=Introdu  o: Cristal (instrumental)
TTITLE1=Fera ferida
TTITLE2=F  cega, faca amolada
TTITLE3=Eu e  gua
TTITLE4=Genipapo absoluto
TTITLE5=Man  Fogueteiro
TTITLE6=Tudo de novo
TTITLE7=As can  es que voc   fez pra mim
TTITLE8=Ronda
TTITLE9=Atr s da verde e rosa s  n o vai quem j  morreu
TTITLE10=Faixa de cetim
TTITLE11=Lua
TTITLE12=Lua branca
TTITLE13=Detalhes
TTITLE14=Costumes
TTITLE15=Meu primeiro amor
TTITLE16=Voc  n o sabe
TTITLE17=Explode cora  o
TTITLE18=B rbara
TTITLE19=Mar e lua
TTITLE20=Voc 
TTITLE21=Reconvexo
TTITLE22=Todo o sentimento
TTITLE23=Emo  es
TTITLE24=Todo o sentimento
EXTD=
EXTT0=
EXTT1=
EXTT2=
EXTT3=
EXTT4=
EXTT5=
EXTT6=
EXTT7=
EXTT8=
EXTT9=
EXTT10=
EXTT11=
EXTT12=
EXTT13=
EXTT14=
EXTT15=
EXTT16=
EXTT17=
EXTT18=
EXTT19=
EXTT20=
EXTT21=
EXTT22=
EXTT23=
EXTT24=
PLAYORDER=
